<?xml version="1.0" standalone="no"?>
<!DOCTYPE svg PUBLIC "-//W3C//DTD SVG 20010904//EN"
 "http://www.w3.org/TR/2001/REC-SVG-20010904/DTD/svg10.dtd">
<svg version="1.0" xmlns="http://www.w3.org/2000/svg"
 width="1043.000000pt" height="1043.000000pt" viewBox="0 0 1043.000000 1043.000000"
 preserveAspectRatio="xMidYMid meet">
<metadata>
Created by potrace 1.14, written by Peter Selinger 2001-2017
</metadata>
<g transform="translate(0.000000,1043.000000) scale(0.100000,-0.100000)"
fill="#000000" stroke="none">
<path d="M3617 7802 l-2588 -2588 774 -775 c426 -426 785 -784 799 -796 l24
-22 3384 3384 3385 3385 -1595 0 -1595 0 -2588 -2588z"/>
<path d="M6217 5609 c-17 -5 -2797 -2771 -2797 -2784 0 -2 626 -629 1391
-1394 l1391 -1391 107 -1 c122 0 3012 0 3055 1 25 0 -139 167 -1363 1391 -765
765 -1391 1392 -1391 1394 0 1 626 629 1391 1394 765 765 1387 1391 1383 1392
-55 4 -3150 2 -3167 -2z"/>
</g>
</svg>
